# xmcd
#
# Track frame offsets: 
#        182
#        12502
#        25745
#        37702
#        48457
#        58697
#        69922
#        80282
#        93017
#        102780
#        112507
#        123860
#        132312
#        146787
#
# Disc length: 2087 seconds
#
# Revision: 1
# Processed by: cddbd v1.5.2PL0 Copyright (c) Steve Scherf et al.
# Submitted via: ExactAudioCopy v1.3
#
DISCID=a408250e
DTITLE=Various Artist - Essential Country
DYEAR=1989
DGENRE=Country
TTITLE0=Johnny Cash - I walk the line
TTITLE1=Jerry Lee Lewis - You win again
TTITLE2=Carl Mann - Pretend
TTITLE3=Charlie Rich - Who will the next fool be
TTITLE4=Jack Earls - Slow down
TTITLE5=Charlie Feathers - Defrost your heart
TTITLE6=Roy Orbison - Domino
TTITLE7=Johnny Cash - Folsom Prison blues
TTITLE8=Charlie Rich - Lonely Weekends
TTITLE9=Jerry Lee Lewis - I'll sail my ship alone
TTITLE10=Carl Mann - Mona Lisa
TTITLE11=Johnny Cash - Guess things happen that way
TTITLE12=Warren Smith - Black Jack David
TTITLE13=Roy Orbison - Claudette
EXTD=
EXTT0=
EXTT1=
EXTT2=
EXTT3=
EXTT4=
EXTT5=
EXTT6=
EXTT7=
EXTT8=
EXTT9=
EXTT10=
EXTT11=
EXTT12=
EXTT13=
PLAYORDER=
